<svg xmlns="http://www.w3.org/2000/svg" viewBox="0 0 375 375"><defs><clipPath id="a"><path d="M5 4h365v353H5Zm0 0"/></clipPath><clipPath id="b"><path d="m58.695-41.602 346.395 204-164.035 278.536-346.395-203.997Zm0 0"/></clipPath><clipPath id="c"><path d="m58.695-41.602 346.395 204-164.035 278.536-346.395-203.997Zm0 0"/></clipPath><clipPath id="d"><path d="M166 216h113v115H166Zm0 0"/></clipPath><clipPath id="e"><path d="M202.582 189.309 305.586 302.44l-80.41 73.215-103.008-113.133Zm0 0"/></clipPath><clipPath id="f"><path d="M202.582 189.309 305.586 302.44l-80.41 73.215-103.008-113.133Zm0 0"/></clipPath><clipPath id="g"><path d="M157 282h61v61h-61Zm0 0"/></clipPath><clipPath id="h"><path d="m174.406 268.5 57.278 57.277-40.305 40.305-57.277-57.277Zm0 0"/></clipPath><clipPath id="i"><path d="m174.406 268.5 57.278 57.277-40.305 40.305-57.277-57.277Zm0 0"/></clipPath></defs><g clip-path="url(#a)"><g clip-path="url(#b)"><g clip-path="url(#c)"><path fill="#fb1e43" d="M90.328 350.96a12.2 12.2 0 0 1-1.98-4.792c-1.844-9.106-4.18-15.512-12.407-34.023q-27.147-61.116-35.21-86.97c-8.954-28.741-12.477-57.87-10.137-83.698 2.176-23.965 11.02-47.153 23.066-60.461C65.398 68.05 81.668 62.98 98.102 67.18a64 64 0 0 1 9.312 3.285 64.3 64.3 0 0 1 16.598 10.61 64.4 64.4 0 0 1 6.89 7.073c12.317 14.649 20.993 36.457 28.059 70.54 3.894 18.796 4.316 20.94 4.23 21.433-.222 1.285.938.79 4.024-1.7 10.465-8.437 26.91-17.433 42.906-23.46 19.461-7.336 37.012-10.156 54.828-8.813 14.473 1.09 22.035 3.38 31.738 9.61 7.008 4.5 10.66 7.949 14.141 13.363 9.977 15.527 9.664 35.988-.898 58.93-10.028 21.781-32.782 43.539-65.059 62.219-19.242 11.132-36.703 19.484-66.004 31.562-7.914 3.262-19.566 8.07-25.898 10.68-15.578 6.433-29.832 13.379-38.074 18.558-7.477 4.692-11.223 5.989-14.676 5.075-3.223-.856-8.418-3.579-9.887-5.184Zm17.887-19.67c7.476-4.821 25.883-13.18 56.457-25.642 30.41-12.39 46.703-19.921 64.133-29.644 38.922-21.711 60.226-43.418 67.097-68.375 1.957-7.11 2.317-13.238 1.11-18.922-1.668-7.848-4.836-12.117-12.207-16.477-5.266-3.109-10.871-4.796-18.848-5.687-18.719-2.086-40.508 2.602-62.625 13.46-13.172 6.466-21.258 11.954-30.957 21.013-6.57 6.132-8.258 7.18-12.54 7.765-5.483.754-9.714-1.422-11.89-6.113a102 102 0 0 1-3.332-13.016l-4-19.328c-7.71-37.273-13.398-53.445-23.504-66.836-9.218-12.21-23.675-19.27-34.793-16.988-9.062 1.867-16.78 9.64-22.796 22.973-13.008 28.832-12.387 69.914 1.707 112.953 4.582 13.992 9.316 25.93 22.062 55.625 4.805 11.203 9.965 23.426 11.465 27.16 3.133 7.816 8.476 22.98 9.082 25.816a5.3 5.3 0 0 0 .777 2.141 12.2 12.2 0 0 0 3.606-1.879ZM17.469 70.573C13.625 66.711 6.867 58.688 6.047 57.027c-1.832-3.707.262-9.465 4.117-11.285 5.332-2.52 8.156-1.199 17.031 7.985 6.871 7.113 8.235 8.984 8.47 11.62a9.3 9.3 0 0 1-.102 2.59 9.1 9.1 0 0 1-.81 2.458 9.2 9.2 0 0 1-1.452 2.14 9.23 9.23 0 0 1-4.363 2.695 9.2 9.2 0 0 1-2.563.348 9.2 9.2 0 0 1-2.562-.375 9.4 9.4 0 0 1-2.36-1.066 34.5 34.5 0 0 1-3.988-3.559ZM330.977 233.37a9 9 0 0 1-1.274-1.5 9.2 9.2 0 0 1-.922-1.742 9.1 9.1 0 0 1-.293-5.805q.269-.95.742-1.824a9 9 0 0 1 1.114-1.621q.65-.749 1.441-1.34c2.805-2.101 5.895-2.043 11.61.223a91 91 0 0 1 9.703 4.656c4 2.289 4.734 2.89 5.39 4.437 3.004 7.055-1.707 13.258-9.683 12.743-3.13-.196-15.625-5.965-17.828-8.227M54.484 37.828c-2.562-3.226-5.765-14.336-5.773-20.031-.016-7.586 4.566-11.684 11.223-10.047 3.984.98 5.191 2.676 7.007 9.867.903 3.582 2.29 8.48 3.075 10.883 1.703 5.176 1.375 8.203-1.168 10.918-2.676 2.852-7.895 3.637-11.098 1.664a17.6 17.6 0 0 1-3.266-3.254m281.278 156.059c-3.371-4.356-1.946-10.5 3.086-13.305 2.82-1.574 11.968-2.754 18.261-2.363q3.92-.03 7.188 2.136c2.5 1.473 3.363 2.27 3.96 3.665a9 9 0 0 1 .692 2.027 9 9 0 0 1 .203 2.137 9.1 9.1 0 0 1-1.082 4.117c-2.27 3.855-5.41 4.933-13.242 4.543a61 61 0 0 0-8.433.183c-5.305.66-8.391-.25-10.633-3.144ZM86.942 35.742c-1.653-2.57-2.516-9.191-2.364-18.164.125-7.441 1.992-11.183 6.356-12.723a9 9 0 0 1 3.145-.508 8.9 8.9 0 0 1 3.124.637q.497.196.965.453c.468.257.617.36.906.567a9 9 0 0 1 1.574 1.437c.23.274.446.555.645.852q.3.444.539.922c.164.316.305.644.426.976a8.6 8.6 0 0 1 .488 2.079q.06.527.055 1.066c.011 1.398.285 5.867.601 9.93q.479 4.694.137 9.406a9 9 0 0 1-.469 1.598 9.3 9.3 0 0 1-.754 1.484 9 9 0 0 1-1.011 1.324 9.1 9.1 0 0 1-2.649 1.996 9 9 0 0 1-1.554.606 9 9 0 0 1-1.633.316 9 9 0 0 1-1.668.012 8.1 8.1 0 0 1-3.996-1.219 8.14 8.14 0 0 1-2.867-3.043ZM316.48 158.117c-1.683-3.566-1.574-5.484.54-9.02 2.078-3.48 5.078-5.87 18.148-14.445 6.637-4.351 9.64-5.449 12.422-4.535.785.258 1.781.551 2.2.649 2.616.609 5.667 6.398 5.187 9.836-.532 3.765-3 6.156-11.836 11.46-4.528 2.72-9.762 6.114-11.633 7.543a25 25 0 0 1-4.738 3.016 9.5 9.5 0 0 1-1.489.234 10 10 0 0 1-1.504-.011 9.2 9.2 0 0 1-2.91-.746q-.69-.3-1.324-.715a9 9 0 0 1-1.191-.918 9 9 0 0 1-1.032-1.098 9.6 9.6 0 0 1-.836-1.25Zm0 0"/></g></g></g><g clip-path="url(#d)"><g clip-path="url(#e)"><g clip-path="url(#f)"><path fill="#fc5571" d="M278.684 292.602c1.707-16.653-10.664-31.399-27.383-32.032-8.574-.324-16.621 2.934-22.64 8.414 6.019-5.48 10.015-13.187 10.491-21.757.934-16.704-12.59-30.395-29.328-30.258-37.972.316-52.136 50.008-38.18 97.176a11.46 11.46 0 0 0 6.723 7.382c45.656 18.309 96.453 8.852 100.317-28.925m0 0"/></g></g></g><g clip-path="url(#g)"><g clip-path="url(#h)"><g clip-path="url(#i)"><path fill="#fee1e6" d="M217.098 321.102c.488-8.829-6.403-16.297-15.235-16.22-4.531.044-8.695 1.958-11.734 4.997 3.039-3.04 4.957-7.2 4.996-11.73.082-8.836-7.39-15.723-16.215-15.235-20.02 1.106-26.265 27.66-17.734 52.195a6.04 6.04 0 0 0 3.726 3.727c24.536 8.527 51.09 2.285 52.196-17.734m0 0"/></g></g></g></svg>
