<svg xmlns="http://www.w3.org/2000/svg" viewBox="0 0 84 50.25"><path fill="#d90429" d="M7.677 10.264q-1.112 0-1.796-.234c-.461-.164-.766-.375-.922-.625a1.6 1.6 0 0 1-.203-.453q-.08-.31.062-.672.31.235.672.359.357.11.656.156.374.064.719.063.656.001 1.266-.11c.414-.07.828-.171 1.234-.296q.264-1.313.516-2.344.248-1.046.578-1.703.341-.716.718-1.297.389-.575.86-.969a3.6 3.6 0 0 1 1.031-.625q.563-.217 1.313-.219.543.001.859.219.31.22.469.547.169.316.203.703.03.375.031.703 0 .722-.36 1.578a7.6 7.6 0 0 1-.968 1.672 10 10 0 0 1-1.516 1.563 8.2 8.2 0 0 1-1.968 1.218c-.243.961-.48 1.907-.72 2.844q-.361 1.394-.718 2.313c-.2.562-.453 1.195-.766 1.89-.312.7-.695 1.364-1.14 2q.406.265.828.547.435.28.86.5.433.233.874.39.451.155.953.157a6 6 0 0 0 1.032-.156q.435-.113.906-.36.48-.252.89-.703.153.248.094.766c-.03.351-.14.703-.328 1.047a2.8 2.8 0 0 1-.812.922c-.344.257-.778.39-1.297.39q-.832 0-1.547-.234a8.4 8.4 0 0 1-1.36-.547 13 13 0 0 1-1.187-.703 94 94 0 0 1-1.016-.703 6 6 0 0 1-1.437 1.015 3.9 3.9 0 0 1-1.75.391c-.5 0-.898-.14-1.203-.422-.313-.281-.453-.664-.422-1.14q.016-.269.156-.625.128-.363.485-.688.362-.328 1-.562c.418-.149.957-.22 1.625-.22q.375.001.703.079c.226.05.453.113.672.187q.234-.436.468-1 .248-.561.532-1.28a32 32 0 0 0 .859-2.75c.25-.927.46-1.821.64-2.688q-.316.064-.656.093c-.218.012-.445.016-.672.016m-3.609 9.828a7 7 0 0 1 .64-.219q.374-.111.86-.609a1.7 1.7 0 0 0-.5-.11q-.784-.002-1.14.22c-.239.156-.36.304-.36.453q.001.152.125.234.129.076.375.031m8.219-15.14c-.074.218-.168.539-.281.953q-.177.627-.375 1.453 1.17-.75 1.875-1.735c.476-.656.718-1.304.718-1.953q-.002-.592-.343-.593-.317 0-.797.468-.469.47-.797 1.407m6.873-.11a1.3 1.3 0 0 1-.25.469q-.174.22-.406.36c-.232.14-.313.156-.469.187s-.289.008-.39-.078q-.456-.359-.485-.75-.018-.404.203-.766.216-.357.531-.61c.22-.163.41-.265.579-.296a.43.43 0 0 1 .39.094.83.83 0 0 1 .25.375q.093.234.11.515.012.283-.063.5m-3 4.625q.106-.122.406-.203.311-.094.641-.14c.219-.04.414-.063.594-.063q.281-.012.328 0c.008.012-.031.164-.125.453q-.129.44-.328 1.031-.188.582-.407 1.203-.222.628-.328 1.016-.112.394-.265.875-.142.485-.266.953-.11.47-.156.89-.048.41.062.626c.07.18.149.297.235.36a.5.5 0 0 0 .281.093q.435 0 1.094-.469c.445-.32.898-.703 1.36-1.14q.684-.669 1.265-1.36.592-.684.875-1.094a.8.8 0 0 1 .36-.28q.186-.062.296.03.123.082.14.282.012.188-.14.453-.345.609-1.031 1.453-.676.831-1.438 1.61-.751.767-1.484 1.312-.72.527-1.188.562a1.8 1.8 0 0 1-.718-.125 2.2 2.2 0 0 1-.657-.39 2.3 2.3 0 0 1-.5-.578 1.6 1.6 0 0 1-.203-.72q-.08-.545-.015-1.484.074-.95.25-1.937c.113-.664.257-1.297.437-1.89q.281-.89.625-1.329m0 0"/><path fill="#d90429" d="M29.682 13.123a16 16 0 0 1-1.484 1.875 15 15 0 0 1-1.75 1.61 9.2 9.2 0 0 1-1.89 1.125q-.973.435-1.891.437-.469 0-1.031-.234a3 3 0 0 1-1.016-.688q-.456-.481-.734-1.25c-.176-.507-.227-1.125-.157-1.843q.094-.892.563-1.875a8.5 8.5 0 0 1 1.156-1.828 6.4 6.4 0 0 1 1.547-1.36q.857-.546 1.719-.547.827.001 1.203.407.376.408.328 1.015a3 3 0 0 1-.39 1.25q-.318.563-.75 1.016-.423.454-.923.828-.487.377-.921.672l-.922.625q-.423.298-.75.531.012.549.187.922c.114.242.258.437.438.594q.265.234.593.328.342.094.688.094.75 0 1.547-.47a10.7 10.7 0 0 0 1.578-1.124q.78-.67 1.437-1.39.67-.717 1.094-1.235a.6.6 0 0 1 .313-.203q.17-.03.265.047c.07.043.11.125.11.25s-.055.265-.157.421M24.104 9.78q-.251.001-.609.265-.362.252-.719.75-.345.486-.656 1.188a7.2 7.2 0 0 0-.453 1.625q.264-.2.562-.406c.207-.133.414-.282.625-.438q.921-.715 1.297-1.266.375-.544.422-.937.03-.406-.094-.594a.43.43 0 0 0-.375-.187m0 0"/><path fill="#d90429" d="M32.427 5.186q-.33 1.314-.734 2.5a50 50 0 0 1-.828 2.219q-.423 1.03-.844 1.875c-.421.845-.531 1.058-.75 1.484q-.224 1.565 0 2.531.216.954.844.953.527.001 1.03-.484.5-.48.891-1.172.387-.703.657-1.5.28-.796.343-1.422a1.53 1.53 0 0 1-.703-.375q-.28-.28-.281-.734-.002-.293.172-.563.188-.28.422-.468a1.8 1.8 0 0 1 .515-.313c.188-.07.364-.11.532-.11q.356 0 .625.47.262.47.343 1.187a9 9 0 0 0 1.829-.266q.968-.234 1.812-.609c.156-.07.285-.094.39-.062.102.023.173.078.204.171q.06.128-.016.297a.5.5 0 0 1-.25.25q-.504.282-1.031.516a10 10 0 0 1-1.063.375c-.343.094-.68.172-1 .234a4.7 4.7 0 0 1-.875.094q-.08.862-.546 1.875a9.3 9.3 0 0 1-1.11 1.875c-.43.574-.906 1.047-1.437 1.422s-1.055.562-1.563.562c-.156 0-.367-.023-.625-.062q-.392-.065-.765-.453-.363-.388-.625-1.25c-.18-.57-.25-1.39-.22-2.453q.013-1.06.235-2.25.218-1.202.516-2.391.311-1.202.687-2.328.388-1.124.735-2.031.34-.903.64-1.5.295-.61.453-.797.186-.234.454-.344a2.2 2.2 0 0 1 .515-.172q.246-.059.469-.031.215.017.297.047c.094.062.117.387.078.969q-.047.862-.422 2.234m0 0"/><path fill="#d90429" d="M45.879 13.123a16 16 0 0 1-1.485 1.875 15 15 0 0 1-1.75 1.61 9.2 9.2 0 0 1-1.89 1.125q-.973.435-1.89.437-.47 0-1.032-.234a3 3 0 0 1-1.016-.688q-.455-.481-.734-1.25c-.176-.507-.227-1.125-.156-1.843q.093-.892.562-1.875a8.5 8.5 0 0 1 1.156-1.828 6.4 6.4 0 0 1 1.547-1.36q.856-.546 1.719-.547.826.001 1.203.407.376.408.328 1.015a3 3 0 0 1-.39 1.25q-.316.563-.75 1.016-.424.454-.922.828-.487.377-.922.672l-.922.625-.75.531q.012.549.187.922c.114.242.258.437.438.594q.265.234.594.328.34.094.687.094.75 0 1.547-.47a10.7 10.7 0 0 0 1.578-1.124q.78-.67 1.438-1.39.67-.717 1.093-1.235a.6.6 0 0 1 .313-.203q.17-.03.266.047.107.064.109.25c.002.186-.055.265-.156.421M40.3 9.78q-.252.001-.61.265-.362.252-.719.75-.345.486-.656 1.188a7.2 7.2 0 0 0-.453 1.625q.264-.2.563-.406c.207-.133.414-.282.625-.438q.92-.715 1.296-1.266.375-.544.422-.937.03-.406-.093-.594a.43.43 0 0 0-.375-.187M7.834 44.847q-.549-.018-.97-.563-.407-.55-.718-1.422a15 15 0 0 1-.515-1.968 30 30 0 0 1-.329-2.25q-.126-1.154-.171-2.22a44 44 0 0 1-.047-1.905q.014-1.312.203-2.688.186-1.39.406-2.61.234-1.218.469-2.155.233-.951.344-1.344.138-.623.406-.86.264-.232.984-.265h.516q.216.017.437.047.217.017.39.093a20 20 0 0 0-1.265 3.188 28 28 0 0 0-.734 3.219 25 25 0 0 0-.328 3.172 41 41 0 0 0-.016 3q.031 1.16.125 2.156a23 23 0 0 0 .281 2q.2.997.454 1.156.264.153.546-.203.28-.362.547-1.047c.188-.46.348-.914.485-1.375q.123-.467.375-1.328c.175-.57.375-1.203.593-1.89.22-.696.446-1.423.688-2.173q.357-1.136.656-2.109.31-.967.531-1.687.235-.717.329-.954.124-.358.359-.968c.156-.414.32-.852.5-1.313q.264-.685.562-1.36.293-.685.563-1.218c.164-.332.36-.523.578-.578a.78.78 0 0 1 .64.094c.22.125.415.312.594.562q.264.363.47.75c-.188.074-.384.25-.579.531q-.299.424-.531.907-.282.562-.547 1.218l-.453 1.266q-.281.783-.61 1.719-.316.94-.656 1.937-.329 1.001-.64 1.89-.3.892-.547 1.595-.253.704-.407 1.062-.22.517-.5 1.203-.281.691-.593 1.407c-.211.476-.422.953-.64 1.421s-.438.895-.657 1.282q-.457.81-.766 1.187-.315.389-.812.39m16.665-8.75a16 16 0 0 1-1.484 1.875 15 15 0 0 1-1.75 1.61 9.2 9.2 0 0 1-1.89 1.124q-.973.437-1.891.438-.47 0-1.032-.235a3 3 0 0 1-1.015-.687c-.305-.32-.547-.739-.735-1.25q-.262-.764-.156-1.844.094-.891.563-1.875a8.5 8.5 0 0 1 1.156-1.828 6.4 6.4 0 0 1 1.547-1.36q.856-.545 1.719-.546.826 0 1.203.406.375.408.328 1.016-.064.689-.39 1.25-.318.563-.75 1.015c-.282.305-.59.578-.923.828-.324.25-.633.477-.922.672l-.921.625q-.423.298-.75.531c.007.368.07.672.187.922q.169.361.438.594.264.234.593.328.341.094.688.094.75 0 1.547-.469a10.7 10.7 0 0 0 1.578-1.125q.78-.669 1.437-1.39.67-.717 1.094-1.235a.6.6 0 0 1 .313-.203q.17-.03.265.047c.07.043.11.125.11.25s-.055.266-.157.422m-5.578-3.344q-.252.001-.61.266-.361.252-.718.75-.346.485-.656 1.187a7.2 7.2 0 0 0-.453 1.625q.263-.2.562-.406.31-.201.625-.438.92-.714 1.297-1.265.375-.545.422-.938.03-.405-.094-.593a.43.43 0 0 0-.375-.188m0 0"/><path fill="#d90429" d="M21.431 40.519a.8.8 0 0 1-.328.312.42.42 0 0 1-.328.016q-.14-.048-.187-.219c-.047-.171-.004-.258.078-.437q.08-.123.312-.579.222-.467.531-1.109.315-.64.688-1.39.358-.75.703-1.422.343-.67.625-1.204c.188-.363.32-.625.406-.78q-.234-.218-.328-.313-.08-.094-.125-.422c-.031-.188.008-.43.125-.735q.171-.468.453-.89.294-.421.64-.719.343-.311.673-.312.608.002.86.39c.163.262.265.531.296.813.031.187.016.43-.047.718a2.1 2.1 0 0 1-.328.782q.06.035.172.093.106.047.36.047c.226 0 .39-.008.484-.031q.138-.047.453-.047.358 0 .594.188c.164.117.296.265.39.453.102.18.18.375.235.594q.075.316.109.562.06.55-.297 1.14-.345.58-.844 1.282-.298.44-.61.984-.298.535-.265.969.046.282.157.469.105.174.609.172c.25 0 .52-.086.812-.266q.453-.281.922-.703c.47-.422.618-.594.922-.938q.451-.514.844-1 .387-.498.656-.89.282-.387.422-.563a.55.55 0 0 1 .281-.234q.17-.06.297 0 .14.066.172.266.029.187-.172.515c-.086.149-.234.383-.453.703a23 23 0 0 1-1.75 2.266 10 10 0 0 1-1.14 1.14 7.5 7.5 0 0 1-1.188.829q-.596.328-1.14.328-.563 0-.938-.219a2.1 2.1 0 0 1-.61-.531 2.2 2.2 0 0 1-.328-.688 2.1 2.1 0 0 1-.062-.718q.012-.265.125-.547.123-.294.281-.61.17-.326.36-.64.186-.31.343-.61.358-.639.594-1.078.234-.45.234-.75a.6.6 0 0 0-.093-.344c-.055-.101-.149-.156-.282-.156a1 1 0 0 0-.187.016h-.11c-.03 0-.085.008-.156.015h-.281c-.188 0-.352-.023-.484-.078a2 2 0 0 0-.375-.14q-.082.158-.391.656-.3.503-.703 1.187-.41.674-.86 1.407-.44.737-.828 1.375l-.656 1.093q-.28.44-.344.532m0 0"/><path fill="#d90429" d="M35.625 28.16a31 31 0 0 1-.735 2.5 50 50 0 0 1-.828 2.218q-.421 1.032-.844 1.875a151 151 0 0 1-.75 1.484q-.222 1.564 0 2.532.217.954.844.953.528.001 1.031-.485.5-.48.891-1.171.387-.705.656-1.5.28-.796.344-1.422a1.53 1.53 0 0 1-.703-.375c-.188-.188-.281-.43-.281-.735 0-.195.054-.383.172-.562q.187-.282.421-.469a1.8 1.8 0 0 1 .516-.312c.188-.07.363-.11.531-.11q.358 0 .625.469.264.47.344 1.187a9 9 0 0 0 1.828-.265q.968-.234 1.813-.61.233-.107.39-.062.155.033.203.172.06.127-.015.297a.5.5 0 0 1-.25.25q-.504.28-1.031.515a10 10 0 0 1-1.063.375c-.344.094-.68.172-1 .235a4.7 4.7 0 0 1-.875.093c-.055.575-.234 1.2-.547 1.875a9.3 9.3 0 0 1-1.11 1.875c-.429.575-.905 1.047-1.437 1.422s-1.054.563-1.562.563c-.156 0-.367-.024-.625-.063q-.392-.065-.766-.453-.362-.388-.625-1.25c-.18-.57-.25-1.39-.219-2.453q.012-1.06.235-2.25.216-1.201.515-2.39.313-1.203.688-2.329.388-1.124.734-2.031.342-.903.641-1.5.294-.61.453-.797.186-.233.453-.344a2.2 2.2 0 0 1 .516-.171q.246-.06.469-.032.215.018.296.047.14.095.079.969-.047.862-.422 2.234m0 0"/><path fill="#d90429" d="M43.998 27.816a1.3 1.3 0 0 1-.25.468c-.117.149-.25.266-.406.36s-.312.156-.469.187-.289.008-.39-.078q-.456-.357-.485-.75-.018-.403.203-.766.216-.357.532-.609c.218-.164.41-.266.578-.297a.43.43 0 0 1 .39.094.83.83 0 0 1 .25.375q.093.234.11.516.013.282-.063.5m-3 4.625q.106-.123.407-.204.311-.093.64-.14c.219-.04.414-.063.594-.063q.281-.012.328 0c.008.012-.031.164-.125.453q-.129.44-.328 1.032-.189.58-.406 1.203-.223.628-.328 1.015-.114.394-.266.875-.142.486-.266.954-.11.468-.156.89-.048.41.063.625c.07.18.148.297.234.36a.5.5 0 0 0 .281.093q.436 0 1.094-.468c.445-.32.898-.704 1.36-1.141q.684-.668 1.265-1.36.592-.684.875-1.093a.8.8 0 0 1 .36-.281q.186-.061.296.03.124.083.14.282.013.188-.14.453-.345.609-1.031 1.453-.675.831-1.438 1.61-.751.767-1.484 1.312-.72.528-1.187.563a1.8 1.8 0 0 1-.72-.125 2.2 2.2 0 0 1-.655-.391 2.3 2.3 0 0 1-.5-.578 1.6 1.6 0 0 1-.204-.719q-.08-.546-.015-1.484.075-.951.25-1.938a16 16 0 0 1 .437-1.89q.281-.89.625-1.328m0 0"/><path fill="#d90429" d="M51.13 41.175q-.503 0-.86-.188a1.65 1.65 0 0 1-.577-.484 1.8 1.8 0 0 1-.297-.703 2.3 2.3 0 0 1 .047-.875c.05-.195.125-.469.218-.813.102-.343.207-.71.313-1.109q.171-.592.312-1.187.141-.61.188-1.094.046-.48-.047-.797-.095-.328-.375-.328-.344 0-.719.234a3.8 3.8 0 0 0-.75.625c-.25.262-.508.563-.765.906q-.377.503-.735 1.047-.204.736-.344 1.297-.127.55-.218 1-.094.44-.188.781l-.156.641q-.064.223-.39.422a3.3 3.3 0 0 1-.688.328q-.373.14-.64.14-.282 0-.235-.187c.023-.094.074-.289.156-.594q.111-.45.281-1.078.153-.62.328-1.312.17-.702.329-1.328l.234-1.11q.106-.527.266-1.218a65 65 0 0 1 .39-1.532q.153-.122.313-.203.168-.077.343-.125.172-.06.36-.078c.113 0 .234.008.36.016q.138.035.296.093a.9.9 0 0 1 .313.157 2.4 2.4 0 0 0-.172.422c-.055.18-.106.37-.157.578q-.094.344-.218.718.279-.386.64-.796.359-.406.782-.735c.423-.329.578-.394.89-.531q.48-.201.985-.203.42 0 .75.234c.33.234.382.383.5.672q.185.423.218 1.016c.032.386-.023.808-.156 1.265l-.234.969q-.112.457-.282 1.078-.157.61-.39 1.36-.143.47-.11.828.03.344.422.343.387 0 .985-.468.609-.481 1.218-1.157.608-.686 1.157-1.39.545-.703.828-1.14c.125-.188.242-.306.36-.36.124-.063.218-.07.28-.031q.094.063.094.296 0 .222-.172.579-.157.298-.468.796-.316.504-.75 1.079-.44.564-.938 1.14-.503.563-1.047 1.031a7 7 0 0 1-1.078.766c-.355.195-.687.297-1 .297m0 0"/><path fill="#d90429" d="M61.204 36.472q-.112.673-.219 1.281a9 9 0 0 0-.11.984c-.01.368.052.625.188.782q.216.234.485.234.31 0 .75-.297.45-.309.953-.765.497-.45 1-1 .499-.546.922-1.032c.281-.32.52-.61.718-.86q.295-.374.407-.483a.46.46 0 0 1 .265-.141c.094-.02.164-.008.22.031q.093.063.093.25-.001.176-.172.422-.269.422-.672.984-.408.55-.922 1.141a26 26 0 0 1-1.062 1.156 11 11 0 0 1-1.11 1 7.4 7.4 0 0 1-1.062.688q-.503.28-.906.281-.315-.001-.594-.172a2 2 0 0 1-.485-.453 2.2 2.2 0 0 1-.343-.625 2 2 0 0 1-.094-.703q.03-.154.078-.531-.924 1.031-1.844 1.625-.925.592-1.78.593a1.7 1.7 0 0 1-.657-.156 1.46 1.46 0 0 1-.61-.484q-.269-.359-.437-.922-.188-.562-.14-1.375.064-1.249.5-2.375a7.7 7.7 0 0 1 1.093-1.984 5.4 5.4 0 0 1 1.5-1.329c.563-.32 1.125-.484 1.688-.484q.374 0 .671.188c.208.125.383.289.532.484q.217.282.36.64.14.347.202.641.153-.623.281-1.234c.094-.406.18-.79.266-1.156q.218-.81.453-1.735.219-.81.5-1.86a51 51 0 0 1 .64-2.187c.145-.125.282-.21.407-.265q.2-.094.375-.141.188-.061.375-.062.2.002.375.062.187.047.297.281.124.236.172.688a8 8 0 0 1 0 1.234 10.6 10.6 0 0 1-.344 2.094q-.3 1.125-.781 2.344a25 25 0 0 1-1.094 2.406q-.61 1.207-1.328 2.297m-1.281.281q.074-.405.156-.812.075-.422.187-.86a.2.2 0 0 0-.078.047q-.033.018-.078.031-.234.111-.328 0c-.055-.082-.078-.21-.078-.39q-.001-.124-.031-.453a3 3 0 0 0-.125-.704 1.8 1.8 0 0 0-.297-.625.6.6 0 0 0-.531-.28q-.504 0-1.032.515a6.8 6.8 0 0 0-.968 1.25q-.456.72-.766 1.547-.299.83-.344 1.468-.047 1.049.25 1.516a.97.97 0 0 0 .844.453q.389 0 .86-.297.467-.31.906-.75.452-.434.828-.89.374-.45.625-.766m0 0"/><path fill="#d90429" d="M74.24 36.097a16 16 0 0 1-1.484 1.875 15 15 0 0 1-1.75 1.61 9.2 9.2 0 0 1-1.89 1.124q-.972.437-1.89.438-.47 0-1.032-.235a3 3 0 0 1-1.016-.687q-.455-.482-.734-1.25-.263-.764-.156-1.844.094-.891.562-1.875a8.5 8.5 0 0 1 1.156-1.828 6.4 6.4 0 0 1 1.547-1.36q.856-.545 1.72-.546.826 0 1.202.406.376.408.328 1.016-.064.689-.39 1.25-.317.563-.75 1.015a7 7 0 0 1-.922.828c-.324.25-.633.477-.922.672l-.922.625-.75.531c.008.368.07.672.188.922q.168.361.437.594.265.234.594.328.34.094.687.094.75 0 1.547-.469a10.7 10.7 0 0 0 1.578-1.125q.78-.669 1.438-1.39.67-.717 1.094-1.235a.6.6 0 0 1 .312-.203q.17-.03.266.047c.07.043.11.125.11.25s-.056.266-.157.422m-5.577-3.344q-.252.001-.61.266-.362.252-.718.75-.346.485-.657 1.187a7.2 7.2 0 0 0-.453 1.625q.264-.2.563-.406.31-.201.625-.438.92-.714 1.297-1.265.375-.545.421-.938.03-.405-.093-.593a.43.43 0 0 0-.375-.188m0 0"/><path fill="#d90429" d="M80.032 35.128a.33.33 0 0 1 .219-.172q.153-.029.234.031.094.066.094.22.013.157-.11.421-.44.832-1.155 1.781a21 21 0 0 1-1.485 1.797 11 11 0 0 1-1.531 1.375q-.737.546-1.234.547-.721 0-1.204-.281a2.4 2.4 0 0 1-.75-.688 2.8 2.8 0 0 1-.375-.906 2.7 2.7 0 0 1-.062-.906q.028-.359.156-1.25.122-.904.344-2.094.216-1.186.484-2.547.281-1.359.578-2.625c-.242.031-.484.063-.734.094s-.477.047-.672.047q-.703 0-1.312-.156-.621-.17-.938-.329-.17-.092-.14-.25a.7.7 0 0 1 .125-.312 1.2 1.2 0 0 1 .28-.297q.159-.124.282-.125.422.048.89.078a10 10 0 0 0 1.844-.047q.375-.045.75-.11.28-1.042.547-1.812.28-.78.5-1.078.06-.105.282-.187c.156-.051.32-.086.5-.11q.264-.03.5 0 .234.035.343.157.106.176.094.89-.018.72-.234 1.828c.601 0 1.14.04 1.609.11q.715.094 1.219.219.497.111.797.234.311.11.453.156.153.048.172.219a.8.8 0 0 1-.063.36.9.9 0 0 1-.25.327.46.46 0 0 1-.39.079 5 5 0 0 1-.5-.094 6 6 0 0 0-.657-.094q-.376-.046-.906-.094a14 14 0 0 0-1.203-.047c-.094 0-.195.008-.297.016h-.344l-.156.703q-.081.328-.203.703a61 61 0 0 1-.656 1.89q-.33.893-.782 2.048a84 84 0 0 1-1.03 2.453q-.129.939.03 1.422.171.486.407.703.281.253.703.266c.219.03.484-.04.797-.22q.466-.279.968-.734.497-.449 1-1 .514-.545.954-1.062.435-.53.765-.953c.33-.423.367-.477.453-.594m0 0"/></svg>
